<?xml version="1.0" ?><svg width="28px" height="28px" viewBox="0 0 28 28" fill="none" xmlns="http://www.w3.org/2000/svg"><path d="M10.5 9.79999C10.5 9.35818 10.8582 9 11.3 9H11.7C12.1418 9 12.5 9.35818 12.5 9.79999V18.2C12.5 18.6418 12.1418 19 11.7 19H11.3C10.8582 19 10.5 18.6418 10.5 18.2V9.79999Z" fill="black"/><path d="M16.3 9C15.8582 9 15.5 9.35818 15.5 9.79999V18.2C15.5 18.6418 15.8582 19 16.3 19H16.7C17.1418 19 17.5 18.6418 17.5 18.2V9.79999C17.5 9.35818 17.1418 9 16.7 9H16.3Z" fill="black"/><path clip-rule="evenodd" d="M1 14C1 6.82031 6.82031 1 14 1C21.1797 1 27 6.82031 27 14C27 21.1797 21.1797 27 14 27C6.82031 27 1 21.1797 1 14ZM14 3C7.92487 3 3 7.92487 3 14C3 20.0751 7.92487 25 14 25C20.0751 25 25 20.0751 25 14C25 7.92487 20.0751 3 14 3Z" fill="black" fill-rule="evenodd"/></svg>