<?xml version="1.0" encoding="iso-8859-1"?>
<!-- Generator: Adobe Illustrator 19.0.0, SVG Export Plug-In . SVG Version: 6.00 Build 0)  -->
<svg version="1.1" id="Capa_1" xmlns="http://www.w3.org/2000/svg" xmlns:xlink="http://www.w3.org/1999/xlink" x="0px" y="0px"
	 viewBox="0 0 512 512" style="enable-background:new 0 0 512 512;" xml:space="preserve">
<path style="fill:#5B699C;" d="M501.968,5.638c-5.048-4.379-11.743-6.349-18.366-5.407l-322.773,46.11
	c-11.359,1.623-19.795,11.351-19.795,22.825v92.221v178.088c-13.658-7.956-29.509-12.537-46.421-12.537
	c-51.021,0-92.531,41.51-92.531,92.531S43.591,512,94.612,512s92.531-41.51,92.531-92.531V181.383l276.663-39.523v151.504
	c-13.658-7.956-29.509-12.537-46.421-12.537c-51.021,0-92.531,41.51-92.531,92.531s41.51,92.531,92.531,92.531
	s92.531-41.51,92.531-92.531V115.276V23.055C509.917,16.371,507.017,10.017,501.968,5.638z"/>
<path style="fill:#2D4175;" d="M501.968,5.638c-5.048-4.379-11.743-6.349-18.366-5.407L255.999,32.745v138.802l207.808-29.686
	v151.504c-13.658-7.956-29.509-12.537-46.421-12.537c-51.021,0-92.531,41.51-92.531,92.531s41.51,92.531,92.531,92.531
	s92.531-41.51,92.531-92.531V115.276V23.055C509.917,16.371,507.017,10.017,501.968,5.638z"/>
<g>
</g>
<g>
</g>
<g>
</g>
<g>
</g>
<g>
</g>
<g>
</g>
<g>
</g>
<g>
</g>
<g>
</g>
<g>
</g>
<g>
</g>
<g>
</g>
<g>
</g>
<g>
</g>
<g>
</g>
</svg>
